<?xml version="1.0" encoding="UTF-8"?>
<!DOCTYPE svg PUBLIC "-//W3C//DTD SVG 1.1//EN" "http://www.w3.org/Graphics/SVG/1.1/DTD/svg11.dtd">
<svg xmlns="http://www.w3.org/2000/svg" version="1.1" width="512px" height="512px" style="shape-rendering:geometricPrecision; text-rendering:geometricPrecision; image-rendering:optimizeQuality; fill-rule:evenodd; clip-rule:evenodd" xmlns:xlink="http://www.w3.org/1999/xlink">
<g><path style="opacity:0.99" fill="#000000" d="M 379.5,66.5 C 382.195,66.933 384.362,68.2663 386,70.5C 388.478,73.7892 390.144,77.4558 391,81.5C 391.667,163.833 391.667,246.167 391,328.5C 347.127,361.205 303.627,394.538 260.5,428.5C 259.167,336.167 259.167,243.833 260.5,151.5C 300.487,123.498 340.153,95.1642 379.5,66.5 Z"/></g>
<g><path style="opacity:0.995" fill="#000000" d="M 80.5,122.5 C 114.597,121.442 147.93,125.942 180.5,136C 197.576,141.803 214.576,147.803 231.5,154C 235.145,154.995 238.812,155.828 242.5,156.5C 242.667,249.834 242.5,343.167 242,436.5C 225.909,428.871 209.742,421.371 193.5,414C 146.391,396.371 97.7247,388.704 47.5,391C 43.3333,389.5 40.5,386.667 39,382.5C 38.3333,300.167 38.3333,217.833 39,135.5C 40.9018,130.6 44.4018,127.433 49.5,126C 59.9686,124.688 70.302,123.522 80.5,122.5 Z"/></g>
<g><path style="opacity:0.982" fill="#000000" d="M 407.5,122.5 C 425.25,122.486 442.917,123.653 460.5,126C 465.712,127.017 469.545,129.851 472,134.5C 472.667,217.167 472.667,299.833 472,382.5C 470.5,386.667 467.667,389.5 463.5,391C 413.287,388.702 364.62,396.369 317.5,414C 309.416,417.473 301.416,421.14 293.5,425C 292.5,425.667 291.5,425.667 290.5,425C 319.5,402.667 348.5,380.333 377.5,358C 383.665,353.75 389.998,349.75 396.5,346C 401.88,342.062 405.38,336.896 407,330.5C 407.5,261.167 407.667,191.834 407.5,122.5 Z"/></g>
<g><path style="opacity:0.973" fill="#000000" d="M -0.5,438.5 C -0.5,346.167 -0.5,253.833 -0.5,161.5C 1.55577,158.951 4.22244,157.451 7.5,157C 12.1548,156.501 16.8215,156.334 21.5,156.5C 21.3333,230.167 21.5,303.834 22,377.5C 23.241,393.075 31.4077,402.908 46.5,407C 65.5,407.333 84.5,407.667 103.5,408C 132.469,412.46 160.802,419.46 188.5,429C 198.653,433.577 208.653,438.41 218.5,443.5C 147.836,444.667 77.169,444.833 6.5,444C 3.40247,443.062 1.06914,441.228 -0.5,438.5 Z"/></g>
<g><path style="opacity:0.973" fill="#000000" d="M 511.5,161.5 C 511.5,253.833 511.5,346.167 511.5,438.5C 509.931,441.228 507.598,443.062 504.5,444C 433.831,444.833 363.164,444.667 292.5,443.5C 312.085,432.692 332.752,424.525 354.5,419C 372.006,414.565 389.673,410.899 407.5,408C 426.5,407.667 445.5,407.333 464.5,407C 480.062,402.771 488.229,392.605 489,376.5C 489.5,303.167 489.667,229.834 489.5,156.5C 495.577,156.196 501.577,156.696 507.5,158C 508.705,159.376 510.038,160.542 511.5,161.5 Z"/></g>
</svg>
